<svg xmlns="http://www.w3.org/2000/svg" viewBox="0 0 64 64" width="64" height="64">
  <defs>
    <linearGradient id="sg" x1="0%" y1="0%" x2="100%" y2="100%">
      <stop offset="0%" style="stop-color:#6C63FF"/>
      <stop offset="100%" style="stop-color:#3B82F6"/>
    </linearGradient>
  </defs>

  <!-- Shield -->
  <path d="M14 12 C14 12, 30 7, 30 7 C31.2 6.7, 32.8 6.7, 34 7 L34 7 C34 7, 50 12, 50 12 C51.8 12.5, 53 14.2, 53 16.2 L53 34 C53 43, 45 50, 32 57 C19 50, 11 43, 11 34 L11 16.2 C11 14.2, 12.2 12.5, 14 12 Z" fill="url(#sg)"/>

  <!-- Card -->
  <rect x="20" y="20" width="24" height="17" rx="3" fill="rgba(255,255,255,0.9)"/>
  <rect x="20" y="23" width="24" height="3" fill="rgba(108,99,255,0.12)"/>
  <rect x="24" y="28" width="6" height="4" rx="1" fill="#D4AF37" opacity="0.7"/>

  <!-- Checkmark -->
  <circle cx="32" cy="46" r="5.5" fill="rgba(255,255,255,0.2)"/>
  <path d="M29 46 L31.5 48.5 L36 44" fill="none" stroke="#fff" stroke-width="1.8" stroke-linecap="round" stroke-linejoin="round"/>
</svg>
