<svg xmlns="http://www.w3.org/2000/svg" viewBox="0 0 64 64" width="64" height="64">
  <defs>
    <linearGradient id="sg" x1="0%" y1="0%" x2="100%" y2="100%">
      <stop offset="0%" style="stop-color:#1A3550"/>
      <stop offset="50%" style="stop-color:#1B7A8E"/>
      <stop offset="100%" style="stop-color:#2CA5B8"/>
    </linearGradient>
  </defs>

  <!-- Shield -->
  <path d="M14 12 C14 12, 30 7, 30 7 C31.2 6.7, 32.8 6.7, 34 7 L34 7 C34 7, 50 12, 50 12 C51.8 12.5, 53 14.2, 53 16.2 L53 34 C53 43, 45 50, 32 57 C19 50, 11 43, 11 34 L11 16.2 C11 14.2, 12.2 12.5, 14 12 Z" fill="url(#sg)"/>

  <!-- Playing card -->
  <g transform="rotate(-8, 30, 28)">
    <rect x="18" y="17" width="18" height="14" rx="2" fill="rgba(255,255,255,0.92)"/>
    <text x="21" y="25" font-family="Georgia,serif" font-size="7" font-weight="bold" fill="#1A3550">A</text>
    <text x="30" y="28" font-size="5" fill="#1B8A9E">&#9824;</text>
  </g>

  <!-- Credit card -->
  <g transform="rotate(10, 38, 28)">
    <rect x="26" y="21" width="20" height="14" rx="2" fill="rgba(255,255,255,0.92)"/>
    <rect x="29" y="25" width="6" height="4" rx="0.8" fill="#C5A55A" opacity="0.8"/>
    <path d="M38 32 L41 26 L43 29" fill="none" stroke="#1B8A9E" stroke-width="1" stroke-linecap="round" opacity="0.6"/>
  </g>

  <!-- C swoosh -->
  <path d="M22 44 Q28 52, 32 49 Q38 46, 44 42" fill="none" stroke="rgba(255,255,255,0.6)" stroke-width="2" stroke-linecap="round"/>

  <!-- Sparkle -->
  <circle cx="42" cy="16" r="1.2" fill="rgba(255,255,255,0.6)"/>
  <circle cx="20" cy="40" r="0.8" fill="rgba(255,255,255,0.4)"/>
</svg>
